<?xml version="1.0" standalone="no"?>
<!DOCTYPE svg PUBLIC "-//W3C//DTD SVG 20010904//EN"
 "http://www.w3.org/TR/2001/REC-SVG-20010904/DTD/svg10.dtd">
<svg version="1.0" xmlns="http://www.w3.org/2000/svg"
 width="225" height="225" viewBox="0 0 225 225"
 preserveAspectRatio="xMidYMid meet">

<g transform="translate(0.000000,225.000000) scale(0.100000,-0.100000)"
fill="#000000" stroke="none">
<path d="M1389 1897 c-164 -56 -248 -167 -257 -338 -7 -131 29 -222 118 -303
154 -139 421 -137 574 4 169 156 150 458 -37 587 -108 73 -270 94 -398 50z
m233 -222 c83 -62 95 -194 24 -269 -76 -81 -210 -64 -265 34 -19 34 -23 52
-19 101 5 66 24 100 79 137 28 20 44 23 94 20 40 -2 70 -10 87 -23z"/>
<path d="M350 1513 l0 -376 263 6 c144 4 304 7 355 7 l92 0 0 110 0 110 -230
0 -230 0 0 260 0 260 -125 0 -125 0 0 -377z"/>
<path d="M625 1088 c-130 -24 -242 -113 -286 -226 -30 -77 -33 -215 -5 -287
60 -157 193 -245 370 -245 227 0 378 144 394 378 l5 72 -202 0 -201 0 0 -95 0
-95 81 0 c75 0 80 -1 68 -17 -21 -24 -89 -53 -129 -53 -69 0 -146 52 -169 113
-20 51 -13 136 13 181 61 104 218 116 280 21 l16 -25 94 47 c107 53 107 50 33
130 -85 93 -216 129 -362 101z"/>
<path d="M1434 1085 c-124 -27 -221 -101 -270 -208 -26 -56 -29 -72 -29 -167
0 -99 2 -110 33 -172 39 -79 92 -129 181 -172 63 -29 72 -31 186 -31 114 0
123 2 187 32 82 39 151 106 186 181 24 50 27 69 27 162 0 93 -3 112 -27 162
-53 113 -147 186 -275 213 -82 18 -119 18 -199 0z m166 -227 c53 -28 80 -62
90 -118 14 -74 -12 -138 -74 -184 -39 -30 -143 -30 -182 0 -51 38 -68 70 -71
137 -3 50 0 69 19 102 26 45 93 85 143 85 17 0 51 -10 75 -22z"/>
</g>
</svg>
